HIERARCHY
ROOT mixamorig:Hips
{
	OFFSET -0.000008 104.274872 1.554316
	CHANNELS 6 Xposition Yposition Zposition Xrotation Yrotation Zrotation
	JOINT mixamorig:Spine
	{
		OFFSET -0.000005 10.181595 0.131519
		CHANNELS 6 Xposition Yposition Zposition Xrotation Yrotation Zrotation
		JOINT mixamorig:Spine1
		{
			OFFSET -0.000000 9.893959 -1.470707
			CHANNELS 6 Xposition Yposition Zposition Xrotation Yrotation Zrotation
			JOINT mixamorig:Spine2
			{
				OFFSET -0.000000 9.220757 -1.370641
				CHANNELS 6 Xposition Yposition Zposition Xrotation Yrotation Zrotation
				JOINT mixamorig:Neck
				{
					OFFSET 0.000001 16.740417 -2.049036
					CHANNELS 6 Xposition Yposition Zposition Xrotation Yrotation Zrotation
					JOINT mixamorig:Head
					{
						OFFSET 0.000000 9.617874 1.685006
						CHANNELS 6 Xposition Yposition Zposition Xrotation Yrotation Zrotation
						JOINT mixamorig:HeadTop_End
						{
							OFFSET 0.000002 22.037354 7.501101
							CHANNELS 6 Xposition Yposition Zposition Xrotation Yrotation Zrotation
							End Site
							{
								OFFSET 0.000168 2310.654297 -282.823242
							}
						}
					}
				}
				JOINT mixamorig:RightShoulder
				{
					OFFSET -4.569970 11.014908 -2.160885
					CHANNELS 6 Xposition Yposition Zposition Xrotation Yrotation Zrotation
					JOINT mixamorig:RightArm
					{
						OFFSET -10.592851 -0.524811 -2.232101
						CHANNELS 6 Xposition Yposition Zposition Xrotation Yrotation Zrotation
						JOINT mixamorig:RightForeArm
						{
							OFFSET -27.841511 0.000031 -0.000004
							CHANNELS 6 Xposition Yposition Zposition Xrotation Yrotation Zrotation
							JOINT mixamorig:RightHand
							{
								OFFSET -28.328831 -0.000015 0.000015
								CHANNELS 6 Xposition Yposition Zposition Xrotation Yrotation Zrotation
								JOINT mixamorig:RightHandThumb1
								{
									OFFSET -2.464806 -1.573990 2.681852
									CHANNELS 6 Xposition Yposition Zposition Xrotation Yrotation Zrotation
									JOINT mixamorig:RightHandThumb2
									{
										OFFSET -3.215179 -1.872803 1.924282
										CHANNELS 6 Xposition Yposition Zposition Xrotation Yrotation Zrotation
										JOINT mixamorig:RightHandThumb3
										{
											OFFSET -2.654831 -1.527969 1.512609
											CHANNELS 6 Xposition Yposition Zposition Xrotation Yrotation Zrotation
											JOINT mixamorig:RightHandThumb4
											{
												OFFSET -2.018814 -1.152008 1.108052
												CHANNELS 6 Xposition Yposition Zposition Xrotation Yrotation Zrotation
												End Site
												{
													OFFSET -188.809540 -114.533607 132.431396
												}
											}
										}
									}
								}
								JOINT mixamorig:RightHandIndex1
								{
									OFFSET -9.108284 -0.517868 2.259835
									CHANNELS 6 Xposition Yposition Zposition Xrotation Yrotation Zrotation
									JOINT mixamorig:RightHandIndex2
									{
										OFFSET -3.699989 0.000000 0.001215
										CHANNELS 6 Xposition Yposition Zposition Xrotation Yrotation Zrotation
										JOINT mixamorig:RightHandIndex3
										{
											OFFSET -2.850006 0.000031 -0.000522
											CHANNELS 6 Xposition Yposition Zposition Xrotation Yrotation Zrotation
											JOINT mixamorig:RightHandIndex4
											{
												OFFSET -2.772186 -0.000015 -0.000020
												CHANNELS 6 Xposition Yposition Zposition Xrotation Yrotation Zrotation
												End Site
												{
													OFFSET -277.218445 0.000000 -0.050231
												}
											}
										}
									}
								}
								JOINT mixamorig:RightHandMiddle1
								{
									OFFSET -9.532516 -0.000031 -0.000023
									CHANNELS 6 Xposition Yposition Zposition Xrotation Yrotation Zrotation
									JOINT mixamorig:RightHandMiddle2
									{
										OFFSET -3.700005 -0.000015 0.003713
										CHANNELS 6 Xposition Yposition Zposition Xrotation Yrotation Zrotation
										JOINT mixamorig:RightHandMiddle3
										{
											OFFSET -2.949974 0.000015 -0.002054
											CHANNELS 6 Xposition Yposition Zposition Xrotation Yrotation Zrotation
											JOINT mixamorig:RightHandMiddle4
											{
												OFFSET -2.946640 0.000000 -0.000156
												CHANNELS 6 Xposition Yposition Zposition Xrotation Yrotation Zrotation
												End Site
												{
													OFFSET -294.664337 0.000000 -0.113670
												}
											}
										}
									}
								}
								JOINT mixamorig:RightHandRing1
								{
									OFFSET -9.103600 -0.043076 -1.865134
									CHANNELS 6 Xposition Yposition Zposition Xrotation Yrotation Zrotation
									JOINT mixamorig:RightHandRing2
									{
										OFFSET -3.379288 0.000000 -0.001055
										CHANNELS 6 Xposition Yposition Zposition Xrotation Yrotation Zrotation
										JOINT mixamorig:RightHandRing3
										{
											OFFSET -2.889687 -0.000015 0.000379
											CHANNELS 6 Xposition Yposition Zposition Xrotation Yrotation Zrotation
											JOINT mixamorig:RightHandRing4
											{
												OFFSET -2.638809 -0.000015 0.000941
												CHANNELS 6 Xposition Yposition Zposition Xrotation Yrotation Zrotation
												End Site
												{
													OFFSET -263.880371 0.000000 0.516020
												}
											}
										}
									}
								}
								JOINT mixamorig:RightHandPinky1
								{
									OFFSET -8.076683 -0.486710 -3.806280
									CHANNELS 6 Xposition Yposition Zposition Xrotation Yrotation Zrotation
									JOINT mixamorig:RightHandPinky2
									{
										OFFSET -3.600014 -0.000015 -0.003747
										CHANNELS 6 Xposition Yposition Zposition Xrotation Yrotation Zrotation
										JOINT mixamorig:RightHandPinky3
										{
											OFFSET -2.099983 0.000000 -0.005739
											CHANNELS 6 Xposition Yposition Zposition Xrotation Yrotation Zrotation
											JOINT mixamorig:RightHandPinky4
											{
												OFFSET -2.115768 -0.000031 -0.003680
												CHANNELS 6 Xposition Yposition Zposition Xrotation Yrotation Zrotation
												End Site
												{
													OFFSET -211.577087 0.000000 -0.350686
												}
											}
										}
									}
								}
							}
						}
					}
				}
				JOINT mixamorig:LeftShoulder
				{
					OFFSET 4.570447 11.014725 -2.160855
					CHANNELS 6 Xposition Yposition Zposition Xrotation Yrotation Zrotation
					JOINT mixamorig:LeftArm
					{
						OFFSET 10.592371 -0.524597 -2.232119
						CHANNELS 6 Xposition Yposition Zposition Xrotation Yrotation Zrotation
						JOINT mixamorig:LeftForeArm
						{
							OFFSET 27.841532 -0.000031 0.000026
							CHANNELS 6 Xposition Yposition Zposition Xrotation Yrotation Zrotation
							JOINT mixamorig:LeftHand
							{
								OFFSET 28.328846 -0.000061 0.000022
								CHANNELS 6 Xposition Yposition Zposition Xrotation Yrotation Zrotation
								JOINT mixamorig:LeftHandThumb1
								{
									OFFSET 2.466141 -1.576172 2.681732
									CHANNELS 6 Xposition Yposition Zposition Xrotation Yrotation Zrotation
									JOINT mixamorig:LeftHandThumb2
									{
										OFFSET 3.217812 -1.872070 1.916482
										CHANNELS 6 Xposition Yposition Zposition Xrotation Yrotation Zrotation
										JOINT mixamorig:LeftHandThumb3
										{
											OFFSET 2.656029 -1.528778 1.514513
											CHANNELS 6 Xposition Yposition Zposition Xrotation Yrotation Zrotation
											JOINT mixamorig:LeftHandThumb4
											{
												OFFSET 2.020889 -1.154053 1.115139
												CHANNELS 6 Xposition Yposition Zposition Xrotation Yrotation Zrotation
												End Site
												{
													OFFSET 190.885437 -115.081749 130.048782
												}
											}
										}
									}
								}
								JOINT mixamorig:LeftHandIndex1
								{
									OFFSET 9.109314 -0.518021 2.259871
									CHANNELS 6 Xposition Yposition Zposition Xrotation Yrotation Zrotation
									JOINT mixamorig:LeftHandIndex2
									{
										OFFSET 3.699989 0.000000 -0.000322
										CHANNELS 6 Xposition Yposition Zposition Xrotation Yrotation Zrotation
										JOINT mixamorig:LeftHandIndex3
										{
											OFFSET 2.850006 0.000000 0.000352
											CHANNELS 6 Xposition Yposition Zposition Xrotation Yrotation Zrotation
											JOINT mixamorig:LeftHandIndex4
											{
												OFFSET 2.774864 -0.000031 -0.000027
												CHANNELS 6 Xposition Yposition Zposition Xrotation Yrotation Zrotation
												End Site
												{
													OFFSET 277.486267 0.000000 -0.009857
												}
											}
										}
									}
								}
								JOINT mixamorig:LeftHandMiddle1
								{
									OFFSET 9.533394 0.000061 0.000044
									CHANNELS 6 Xposition Yposition Zposition Xrotation Yrotation Zrotation
									JOINT mixamorig:LeftHandMiddle2
									{
										OFFSET 3.699989 -0.000015 -0.000231
										CHANNELS 6 Xposition Yposition Zposition Xrotation Yrotation Zrotation
										JOINT mixamorig:LeftHandMiddle3
										{
											OFFSET 2.949997 -0.000015 -0.000059
											CHANNELS 6 Xposition Yposition Zposition Xrotation Yrotation Zrotation
											JOINT mixamorig:LeftHandMiddle4
											{
												OFFSET 2.952896 0.000031 0.000063
												CHANNELS 6 Xposition Yposition Zposition Xrotation Yrotation Zrotation
												End Site
												{
													OFFSET 295.289337 0.000000 0.022810
												}
											}
										}
									}
								}
								JOINT mixamorig:LeftHandRing1
								{
									OFFSET 9.104523 -0.042999 -1.865074
									CHANNELS 6 Xposition Yposition Zposition Xrotation Yrotation Zrotation
									JOINT mixamorig:LeftHandRing2
									{
										OFFSET 3.150009 -0.000031 0.000043
										CHANNELS 6 Xposition Yposition Zposition Xrotation Yrotation Zrotation
										JOINT mixamorig:LeftHandRing3
										{
											OFFSET 2.949982 -0.000015 0.000040
											CHANNELS 6 Xposition Yposition Zposition Xrotation Yrotation Zrotation
											JOINT mixamorig:LeftHandRing4
											{
												OFFSET 2.644348 0.000000 0.000057
												CHANNELS 6 Xposition Yposition Zposition Xrotation Yrotation Zrotation
												End Site
												{
													OFFSET 264.434631 0.000000 0.012105
												}
											}
										}
									}
								}
								JOINT mixamorig:LeftHandPinky1
								{
									OFFSET 8.077789 -0.486847 -3.806259
									CHANNELS 6 Xposition Yposition Zposition Xrotation Yrotation Zrotation
									JOINT mixamorig:LeftHandPinky2
									{
										OFFSET 3.599953 0.000031 0.014727
										CHANNELS 6 Xposition Yposition Zposition Xrotation Yrotation Zrotation
										JOINT mixamorig:LeftHandPinky3
										{
											OFFSET 2.100021 0.000015 0.007705
											CHANNELS 6 Xposition Yposition Zposition Xrotation Yrotation Zrotation
											JOINT mixamorig:LeftHandPinky4
											{
												OFFSET 2.125504 0.000031 0.007517
												CHANNELS 6 Xposition Yposition Zposition Xrotation Yrotation Zrotation
												End Site
												{
													OFFSET 212.550781 0.000000 0.625752
												}
											}
										}
									}
								}
							}
						}
					}
				}
			}
		}
	}
	JOINT mixamorig:RightUpLeg
	{
		OFFSET -8.207787 -6.751648 -1.599560
		CHANNELS 6 Xposition Yposition Zposition Xrotation Yrotation Zrotation
		JOINT mixamorig:RightLeg
		{
			OFFSET -0.000002 -44.370117 0.345942
			CHANNELS 6 Xposition Yposition Zposition Xrotation Yrotation Zrotation
			JOINT mixamorig:RightFoot
			{
				OFFSET 0.000003 -44.423679 -3.043532
				CHANNELS 6 Xposition Yposition Zposition Xrotation Yrotation Zrotation
				JOINT mixamorig:RightToeBase
				{
					OFFSET -0.000002 -8.728671 10.710558
					CHANNELS 6 Xposition Yposition Zposition Xrotation Yrotation Zrotation
					JOINT mixamorig:RightToe_End
					{
						OFFSET -0.000001 -0.000679 9.278119
						CHANNELS 6 Xposition Yposition Zposition Xrotation Yrotation Zrotation
						End Site
						{
							OFFSET 0.000000 -0.067690 927.812134
						}
					}
				}
			}
		}
	}
	JOINT mixamorig:LeftUpLeg
	{
		OFFSET 8.207793 -6.751686 -1.599556
		CHANNELS 6 Xposition Yposition Zposition Xrotation Yrotation Zrotation
		JOINT mixamorig:LeftLeg
		{
			OFFSET -0.000004 -44.370014 0.346954
			CHANNELS 6 Xposition Yposition Zposition Xrotation Yrotation Zrotation
			JOINT mixamorig:LeftFoot
			{
				OFFSET -0.000001 -44.423672 -3.044401
				CHANNELS 6 Xposition Yposition Zposition Xrotation Yrotation Zrotation
				JOINT mixamorig:LeftToeBase
				{
					OFFSET -0.000002 -8.728669 10.710558
					CHANNELS 6 Xposition Yposition Zposition Xrotation Yrotation Zrotation
					JOINT mixamorig:LeftToe_End
					{
						OFFSET -0.000003 -0.000679 9.278133
						CHANNELS 6 Xposition Yposition Zposition Xrotation Yrotation Zrotation
						End Site
						{
							OFFSET 0.000000 -0.068021 927.813477
						}
					}
				}
			}
		}
	}
}
MOTION
Frames: 3
Frame Time: 0.033333
0.000006 104.270477 1.554256 0.000010 0.000003 -0.000113 -0.000005 10.181587 0.131522 0.000001 -0.000003 0.000084 -0.000000 9.893967 -1.470711 0.000001 0.000000 -0.000000 -0.000000 9.220802 -1.370642 0.000000 -0.000000 -0.000000 0.000001 16.740433 -2.049030 0.000000 -0.000000 -0.000000 0.000000 9.617859 1.685014 0.000000 0.000000 0.000000 0.000002 22.037384 7.501101 0.000000 -0.000000 0.000000 -4.569968 11.014880 -2.160881 0.000008 0.000001 -0.000038 -10.592875 -0.524755 -2.231916 75.489908 26.217978 -20.438648 -27.841518 0.000011 0.000537 -52.038248 111.915587 71.700471 -28.328835 -0.000006 0.000027 -0.000321 -0.000045 0.000006 -2.464518 -1.573617 2.682241 -57.047126 -185.886358 -50.207085 -3.215280 -1.872566 1.924650 151.422357 31.354844 4.930377 -2.654951 -1.527867 1.513072 145.420301 27.318354 -36.142441 -2.018822 -1.151999 1.108073 -0.000001 -0.000002 -0.000000 -9.108381 -0.517547 2.260108 96.922433 15.101333 -17.070738 -3.700075 0.000311 0.001506 93.828303 14.075834 -15.013096 -2.850092 0.000360 -0.000276 93.641012 12.008018 -12.789084 -2.772167 -0.000000 -0.000022 -0.000002 0.000001 -0.000002 -9.532600 0.000268 0.000233 90.620020 15.538853 -15.848972 -3.700078 0.000314 0.003955 90.147255 13.471378 -13.409381 -2.950065 0.000337 -0.001823 92.632480 12.301160 -12.867496 -2.946633 0.000015 -0.000154 0.000005 -0.000001 0.000000 -9.103704 -0.042765 -1.864865 87.690798 18.254727 -17.501463 -3.379329 0.000315 -0.000839 88.850004 11.055376 -10.854301 -2.889761 0.000342 0.000643 95.253067 7.860203 -8.663827 -2.638807 -0.000000 0.000939 0.000002 -0.000001 -0.000001 -8.076758 -0.486395 -3.806051 79.055997 19.526505 -16.033516 -3.600045 0.000267 -0.003562 79.710507 9.882331 -7.952690 -2.100002 0.000312 -0.005514 84.133198 5.374921 -4.654170 -2.115772 -0.000056 -0.003676 0.000001 0.000002 -0.000005 4.570446 11.014691 -2.160851 -0.000018 0.000010 -0.000021 10.592470 -0.524586 -2.232347 31.880652 -61.765961 19.387934 27.841831 -0.000010 -0.000140 175.916850 -74.821669 174.663278 28.328833 -0.000043 0.000021 0.000021 -0.000087 -0.000001 2.466207 -1.575855 2.681676 -199.031098 -25.599940 385.890115 3.217638 -1.871660 1.916398 147.970133 -35.813342 -45.457371 2.656105 -1.528617 1.514501 167.010010 -17.034430 55.888586 2.020902 -1.154067 1.115154 0.000004 -0.000001 0.000004 9.109094 -0.517944 2.259998 191.639166 -28.038613 584.388909 3.700100 0.000056 -0.000323 137.650606 -39.059775 84.997845 2.850087 0.000212 0.000216 98.519011 -19.522853 22.588001 2.774890 -0.000033 -0.000030 0.000002 -0.000001 0.000002 9.533227 0.000045 0.000161 183.536335 -32.193926 552.189649 3.700101 0.000179 -0.000332 108.741461 -24.603743 33.842546 2.950018 0.000205 -0.000207 85.799621 -2.538922 2.361735 2.952873 -0.000016 0.000061 -0.000000 -0.000001 0.000000 9.104624 -0.042893 -1.865155 103.646427 -35.043037 43.756808 3.150014 0.000075 -0.000080 219.023485 179.926430 179.974474 2.949952 0.000043 -0.000085 385.350612 17.194573 -3.894880 2.644321 0.000044 0.000048 -0.000002 0.000003 0.000002 8.077854 -0.486697 -3.806412 91.649206 -19.594107 20.773331 3.599945 0.000075 0.014570 222.946377 169.246555 175.878355 2.099964 0.000053 0.007604 384.075525 24.627500 -5.340382 2.125491 -0.000030 0.007490 -0.000008 0.000002 -0.000001 -8.207786 -6.751667 -1.599560 -0.077001 -0.000003 0.000080 -0.000002 -44.370110 0.345938 0.153719 -0.000000 -0.000000 0.000000 -44.423679 -3.043532 -0.076700 0.000000 -0.000002 -0.000006 -8.728667 10.710559 -0.000009 -0.000000 -0.000000 -0.000001 -0.000679 9.278123 0.000000 -0.000000 -0.000000 8.207792 -6.751710 -1.599556 -0.074518 -0.000003 0.000081 -0.000002 -44.370014 0.346960 0.148822 0.000002 0.000000 -0.000001 -44.423664 -3.044403 -0.074314 0.000000 -0.000002 -0.000004 -8.728671 10.710558 0.000007 -0.000000 -0.000000 0.000000 -0.000680 9.278137 -0.000000 0.000000 -0.000001 
0.000006 104.270477 1.554256 0.000010 0.000003 -0.000113 -0.000005 10.181587 0.131522 0.000001 -0.000003 0.000084 -0.000000 9.893967 -1.470711 0.000001 0.000000 -0.000000 -0.000000 9.220802 -1.370642 0.000000 -0.000000 -0.000000 0.000001 16.740433 -2.049030 0.000000 -0.000000 -0.000000 0.000000 9.617859 1.685014 0.000000 0.000000 0.000000 0.000002 22.037384 7.501101 0.000000 -0.000000 0.000000 -4.569968 11.014880 -2.160881 0.000008 0.000001 -0.000038 -10.592882 -0.524722 -2.231960 75.137367 19.640791 -15.168848 -27.841513 0.000006 0.000529 -53.308523 112.728441 74.066824 -28.328836 0.000006 0.000023 -0.000319 -0.000046 0.000007 -2.464520 -1.573638 2.682255 -56.970864 -183.714754 -47.088728 -3.215266 -1.872568 1.924649 150.877567 31.520432 6.707489 -2.654943 -1.527860 1.513079 145.189440 27.432261 -35.264683 -2.018845 -1.151989 1.108070 -0.000002 -0.000000 0.000000 -9.108389 -0.517541 2.260108 97.988209 14.824844 -17.072722 -3.700083 0.000317 0.001509 93.910395 13.617796 -14.545178 -2.850088 0.000373 -0.000277 93.254355 11.508853 -12.175937 -2.772149 -0.000013 -0.000019 0.000001 0.000000 0.000000 -9.532593 0.000273 0.000233 91.228952 15.081667 -15.548775 -3.700085 0.000319 0.003948 90.138812 12.753733 -12.688827 -2.950065 0.000343 -0.001821 92.251096 11.583671 -12.037233 -2.946627 0.000014 -0.000158 -0.000003 -0.000000 0.000001 -9.103723 -0.042778 -1.864889 87.775997 17.685028 -16.978348 -3.379323 0.000320 -0.000840 88.464931 10.367451 -10.111826 -2.889768 0.000347 0.000644 94.848337 7.276799 -7.967976 -2.638819 -0.000002 0.000945 -0.000002 0.000001 -0.000002 -8.076784 -0.486410 -3.806055 78.747607 19.188421 -15.667276 -3.600033 0.000270 -0.003550 79.684737 9.374397 -7.526343 -2.100014 0.000320 -0.005516 85.075327 4.850443 -4.251783 -2.115770 -0.000041 -0.003675 0.000000 -0.000005 -0.000002 4.570446 11.014691 -2.160851 -0.000018 0.000010 -0.000021 10.592464 -0.524588 -2.232342 26.834604 -62.039052 16.326590 27.841843 0.000005 -0.000150 168.532418 -74.844093 165.048311 28.328840 -0.000028 0.000025 0.000020 -0.000090 -0.000000 2.466257 -1.575948 2.681698 -204.142087 -20.523931 412.153367 3.217812 -1.871718 1.916377 160.638386 -31.411483 0.805757 2.656103 -1.528677 1.514534 161.194664 -16.512143 66.649676 2.020872 -1.154052 1.115146 -0.000001 0.000006 0.000004 9.109227 -0.518061 2.259961 178.921737 -28.423462 535.703430 3.700093 0.000073 -0.000325 134.181361 -40.285299 81.946950 2.850073 0.000158 0.000229 89.033640 -23.520202 23.136094 2.774883 -0.000047 -0.000027 -0.000000 0.000001 -0.000002 9.533221 0.000042 0.000157 183.551922 -29.570686 553.376408 3.700099 0.000146 -0.000294 114.580965 -29.950625 45.219117 2.950031 0.000175 -0.000192 81.437390 -5.263885 4.533781 2.952856 -0.000030 0.000067 0.000000 0.000000 0.000001 9.104643 -0.042873 -1.865140 112.365279 -36.027581 51.790452 3.150018 0.000048 -0.000064 212.872148 181.003087 180.296394 2.949955 0.000013 -0.000070 376.443171 17.435381 -2.538418 2.644324 0.000017 0.000057 -0.000001 0.000004 -0.000003 8.077877 -0.486705 -3.806380 95.701721 -21.743692 24.631908 3.599931 0.000057 0.014569 215.637828 170.167142 176.927321 2.099959 0.000016 0.007625 372.518026 24.101328 -2.727666 2.125508 -0.000015 0.007504 -0.000002 0.000001 -0.000002 -8.207786 -6.751667 -1.599560 -0.077001 -0.000003 0.000080 -0.000002 -44.370110 0.345938 0.153719 -0.000000 -0.000000 0.000000 -44.423679 -3.043532 -0.076700 0.000000 -0.000002 -0.000006 -8.728667 10.710559 -0.000009 -0.000000 -0.000000 -0.000001 -0.000679 9.278123 0.000000 -0.000000 -0.000000 8.207792 -6.751710 -1.599556 -0.074518 -0.000003 0.000081 -0.000002 -44.370014 0.346960 0.148822 0.000002 0.000000 -0.000001 -44.423664 -3.044403 -0.074314 0.000000 -0.000002 -0.000004 -8.728671 10.710558 0.000007 -0.000000 -0.000000 0.000000 -0.000680 9.278137 -0.000000 0.000000 -0.000001 
0.000006 104.270477 1.554256 0.000010 0.000003 -0.000113 -0.000005 10.181587 0.131522 0.000001 -0.000003 0.000084 -0.000000 9.893967 -1.470711 0.000001 0.000000 -0.000000 -0.000000 9.220802 -1.370642 0.000000 -0.000000 -0.000000 0.000001 16.740433 -2.049030 0.000000 -0.000000 -0.000000 0.000000 9.617859 1.685014 0.000000 0.000000 0.000000 0.000002 22.037384 7.501101 0.000000 -0.000000 0.000000 -4.569968 11.014880 -2.160881 0.000008 0.000001 -0.000038 -10.592878 -0.524724 -2.231953 74.924361 20.346346 -15.658719 -27.841526 0.000002 0.000548 -53.992154 113.391324 75.581302 -28.328831 0.000021 0.000026 -0.000320 -0.000046 0.000008 -2.464513 -1.573626 2.682256 -56.872110 -183.455466 -46.383159 -3.215287 -1.872584 1.924646 151.655348 31.385607 4.924389 -2.654968 -1.527873 1.513078 145.645738 27.304736 -35.794006 -2.018815 -1.152000 1.108075 -0.000005 -0.000003 0.000000 -9.108382 -0.517528 2.260124 97.868934 14.529452 -16.699973 -3.700087 0.000318 0.001486 93.659440 13.052252 -13.880549 -2.850073 0.000373 -0.000284 92.517644 10.824227 -11.306572 -2.772170 0.000001 -0.000018 0.000002 -0.000000 -0.000000 -9.532587 0.000275 0.000239 92.155351 14.681191 -15.383316 -3.700058 0.000332 0.003959 90.014660 12.276006 -12.184250 -2.950057 0.000324 -0.001827 91.696171 11.304440 -11.634557 -2.946620 0.000000 -0.000157 -0.000005 0.000000 0.000001 -9.103712 -0.042756 -1.864879 88.511035 17.002853 -16.529266 -3.379329 0.000326 -0.000832 88.728365 10.026355 -9.824398 -2.889759 0.000328 0.000624 94.973965 7.175040 -7.874487 -2.638802 0.000000 0.000934 -0.000001 0.000000 0.000000 -8.076756 -0.486392 -3.806063 78.852622 18.437995 -15.074777 -3.600046 0.000278 -0.003556 79.556500 9.065277 -7.252640 -2.100009 0.000318 -0.005525 84.732185 4.679759 -4.071092 -2.115772 -0.000028 -0.003676 0.000001 0.000004 -0.000005 4.570446 11.014691 -2.160851 -0.000018 0.000010 -0.000021 10.592459 -0.524585 -2.232337 23.077999 -62.503519 14.125609 27.841839 -0.000005 -0.000153 165.338881 -74.663339 160.851378 28.328827 -0.000028 0.000021 0.000021 -0.000088 0.000002 2.466252 -1.576016 2.681728 -207.378081 -18.881332 425.205777 3.217838 -1.871799 1.916392 164.673047 -25.155059 27.635881 2.656101 -1.528736 1.514556 155.646870 -15.729265 81.866162 2.020899 -1.154079 1.115163 0.000002 0.000005 0.000002 9.109303 -0.518044 2.259937 170.524729 -29.777005 505.328540 3.700108 0.000047 -0.000346 126.550319 -41.858951 74.472729 2.850095 0.000143 0.000243 85.094656 -24.793848 22.811415 2.774887 -0.000046 -0.000019 0.000001 -0.000000 -0.000000 9.533274 0.000025 0.000146 178.212585 -29.939922 533.294122 3.700106 0.000144 -0.000302 110.966962 -29.878946 42.406404 2.950032 0.000175 -0.000205 80.465550 -5.713729 4.837503 2.952864 -0.000014 0.000062 0.000001 0.000001 -0.000005 9.104637 -0.042903 -1.865137 112.418992 -37.028600 53.170366 3.150015 0.000033 -0.000025 208.781220 182.019487 180.518649 2.949979 0.000023 -0.000063 370.995331 17.633199 -1.710656 2.644315 0.000018 0.000055 0.000001 0.000004 0.000001 8.077865 -0.486689 -3.806387 98.233304 -23.070286 27.236920 3.599924 0.000049 0.014590 212.824091 170.406116 177.253326 2.099973 0.000000 0.007624 368.057530 24.333763 -1.800552 2.125499 -0.000030 0.007524 0.000001 0.000000 0.000002 -8.207786 -6.751667 -1.599560 -0.077001 -0.000003 0.000080 -0.000002 -44.370110 0.345938 0.153719 -0.000000 -0.000000 0.000000 -44.423679 -3.043532 -0.076700 0.000000 -0.000002 -0.000006 -8.728667 10.710559 -0.000009 -0.000000 -0.000000 -0.000001 -0.000679 9.278123 0.000000 -0.000000 -0.000000 8.207792 -6.751710 -1.599556 -0.074518 -0.000003 0.000081 -0.000002 -44.370014 0.346960 0.148822 0.000002 0.000000 -0.000001 -44.423664 -3.044403 -0.074314 0.000000 -0.000002 -0.000004 -8.728671 10.710558 0.000007 -0.000000 -0.000000 0.000000 -0.000680 9.278137 -0.000000 0.000000 -0.000001 
